<svg width="24" height="24" viewBox="0 0 24 24" fill="none" xmlns="http://www.w3.org/2000/svg">
<path fill-rule="evenodd" clip-rule="evenodd" d="M17.9697 1.96965C19.091 0.848332 20.909 0.848333 22.0303 1.96965C23.1517 3.09097 23.1517 4.90899 22.0303 6.03031L12.4676 15.5931C12.4503 15.6103 12.4332 15.6274 12.4164 15.6443C12.1205 15.9405 11.8877 16.1736 11.6084 16.3447C11.3624 16.4955 11.0941 16.6066 10.8135 16.674C10.4951 16.7504 10.1656 16.7503 9.74699 16.75C9.72313 16.75 9.69897 16.75 9.67452 16.75H7.99997C7.58576 16.75 7.24997 16.4142 7.24997 16V14.3255C7.24997 14.301 7.24996 14.2769 7.24995 14.253C7.2497 13.8344 7.24951 13.5049 7.32596 13.1864C7.39332 12.9058 7.50444 12.6376 7.65521 12.3915C7.82631 12.1123 8.05946 11.8795 8.35564 11.5836C8.37252 11.5668 8.38961 11.5497 8.40691 11.5324L17.9697 1.96965ZM20.9697 3.03031C20.4341 2.49478 19.5659 2.49478 19.0303 3.03031L9.46756 12.5931C9.09642 12.9642 9.00069 13.0667 8.93417 13.1753C8.86564 13.2871 8.81513 13.4091 8.78451 13.5366C8.75479 13.6604 8.74997 13.8006 8.74997 14.3255V15.25H9.67452C10.1994 15.25 10.3396 15.2452 10.4634 15.2154C10.5909 15.1848 10.7129 15.1343 10.8247 15.0658C10.9332 14.9993 11.0358 14.9035 11.4069 14.5324L20.9697 4.96965C21.5052 4.43412 21.5052 3.56585 20.9697 3.03031ZM6.7679 3.24998L11 3.24998C11.4142 3.24998 11.75 3.58577 11.75 3.99998C11.75 4.4142 11.4142 4.74998 11 4.74998H6.8C5.94755 4.74998 5.35331 4.75057 4.89068 4.78837C4.4368 4.82545 4.17604 4.89458 3.97852 4.99522C3.55516 5.21093 3.21095 5.55514 2.99524 5.97851C2.8946 6.17602 2.82547 6.43679 2.78838 6.89066C2.75058 7.35329 2.75 7.94753 2.75 8.79998V17.2C2.75 18.0524 2.75058 18.6467 2.78838 19.1093C2.82547 19.5632 2.8946 19.8239 2.99524 20.0215C3.21095 20.4448 3.55516 20.789 3.97852 21.0047C4.17604 21.1054 4.4368 21.1745 4.89068 21.2116C5.35331 21.2494 5.94755 21.25 6.8 21.25H15.2C16.0525 21.25 16.6467 21.2494 17.1093 21.2116C17.5632 21.1745 17.824 21.1054 18.0215 21.0047C18.4448 20.789 18.789 20.4448 19.0048 20.0215C19.1054 19.8239 19.1745 19.5632 19.2116 19.1093C19.2494 18.6467 19.25 18.0524 19.25 17.2V13C19.25 12.5858 19.5858 12.25 20 12.25C20.4142 12.25 20.75 12.5858 20.75 13V17.2321C20.75 18.0449 20.75 18.7005 20.7066 19.2315C20.662 19.7781 20.5676 20.2582 20.3413 20.7024C19.9817 21.4081 19.4081 21.9817 18.7025 22.3413C18.2582 22.5676 17.7781 22.662 17.2315 22.7066C16.7006 22.75 16.045 22.75 15.2321 22.75H6.76788C5.95505 22.75 5.29944 22.75 4.76853 22.7066C4.2219 22.662 3.74175 22.5676 3.29754 22.3413C2.59193 21.9817 2.01825 21.4081 1.65873 20.7024C1.43239 20.2582 1.33803 19.7781 1.29336 19.2315C1.24999 18.7005 1.24999 18.0449 1.25 17.2321V8.76788C1.24999 7.95504 1.24999 7.29942 1.29336 6.76852C1.33803 6.22188 1.43239 5.74174 1.65873 5.29752C2.01825 4.59191 2.59193 4.01823 3.29754 3.65871C3.74175 3.43237 4.2219 3.33801 4.76853 3.29335C5.29944 3.24997 5.95506 3.24998 6.7679 3.24998Z" fill="currentColor"/>
</svg>
