<svg width="24" height="24" viewBox="0 0 24 24" fill="none" xmlns="http://www.w3.org/2000/svg">
<path d="M12 6C12.5523 6 13 5.55228 13 5C13 4.44772 12.5523 4 12 4C11.4477 4 11 4.44772 11 5C11 5.55228 11.4477 6 12 6Z" fill="currentColor"/>
<path d="M12 13C12.5523 13 13 12.5523 13 12C13 11.4477 12.5523 11 12 11C11.4477 11 11 11.4477 11 12C11 12.5523 11.4477 13 12 13Z" fill="currentColor"/>
<path d="M12 20C12.5523 20 13 19.5523 13 19C13 18.4477 12.5523 18 12 18C11.4477 18 11 18.4477 11 19C11 19.5523 11.4477 20 12 20Z" fill="currentColor"/>
<path d="M19 6C19.5523 6 20 5.55228 20 5C20 4.44772 19.5523 4 19 4C18.4477 4 18 4.44772 18 5C18 5.55228 18.4477 6 19 6Z" fill="currentColor"/>
<path d="M19 13C19.5523 13 20 12.5523 20 12C20 11.4477 19.5523 11 19 11C18.4477 11 18 11.4477 18 12C18 12.5523 18.4477 13 19 13Z" fill="currentColor"/>
<path d="M19 20C19.5523 20 20 19.5523 20 19C20 18.4477 19.5523 18 19 18C18.4477 18 18 18.4477 18 19C18 19.5523 18.4477 20 19 20Z" fill="currentColor"/>
<path d="M5 6C5.55228 6 6 5.55228 6 5C6 4.44772 5.55228 4 5 4C4.44772 4 4 4.44772 4 5C4 5.55228 4.44772 6 5 6Z" fill="currentColor"/>
<path d="M5 13C5.55228 13 6 12.5523 6 12C6 11.4477 5.55228 11 5 11C4.44772 11 4 11.4477 4 12C4 12.5523 4.44772 13 5 13Z" fill="currentColor"/>
<path d="M5 20C5.55228 20 6 19.5523 6 19C6 18.4477 5.55228 18 5 18C4.44772 18 4 18.4477 4 19C4 19.5523 4.44772 20 5 20Z" fill="currentColor"/>
<path fill-rule="evenodd" clip-rule="evenodd" d="M5 4.75C4.86193 4.75 4.75 4.86193 4.75 5C4.75 5.13807 4.86193 5.25 5 5.25C5.13807 5.25 5.25 5.13807 5.25 5C5.25 4.86193 5.13807 4.75 5 4.75ZM3.25 5C3.25 4.0335 4.0335 3.25 5 3.25C5.9665 3.25 6.75 4.0335 6.75 5C6.75 5.9665 5.9665 6.75 5 6.75C4.0335 6.75 3.25 5.9665 3.25 5ZM12 4.75C11.8619 4.75 11.75 4.86193 11.75 5C11.75 5.13807 11.8619 5.25 12 5.25C12.1381 5.25 12.25 5.13807 12.25 5C12.25 4.86193 12.1381 4.75 12 4.75ZM10.25 5C10.25 4.0335 11.0335 3.25 12 3.25C12.9665 3.25 13.75 4.0335 13.75 5C13.75 5.9665 12.9665 6.75 12 6.75C11.0335 6.75 10.25 5.9665 10.25 5ZM19 4.75C18.8619 4.75 18.75 4.86193 18.75 5C18.75 5.13807 18.8619 5.25 19 5.25C19.1381 5.25 19.25 5.13807 19.25 5C19.25 4.86193 19.1381 4.75 19 4.75ZM17.25 5C17.25 4.0335 18.0335 3.25 19 3.25C19.9665 3.25 20.75 4.0335 20.75 5C20.75 5.9665 19.9665 6.75 19 6.75C18.0335 6.75 17.25 5.9665 17.25 5ZM5 11.75C4.86193 11.75 4.75 11.8619 4.75 12C4.75 12.1381 4.86193 12.25 5 12.25C5.13807 12.25 5.25 12.1381 5.25 12C5.25 11.8619 5.13807 11.75 5 11.75ZM3.25 12C3.25 11.0335 4.0335 10.25 5 10.25C5.9665 10.25 6.75 11.0335 6.75 12C6.75 12.9665 5.9665 13.75 5 13.75C4.0335 13.75 3.25 12.9665 3.25 12ZM12 11.75C11.8619 11.75 11.75 11.8619 11.75 12C11.75 12.1381 11.8619 12.25 12 12.25C12.1381 12.25 12.25 12.1381 12.25 12C12.25 11.8619 12.1381 11.75 12 11.75ZM10.25 12C10.25 11.0335 11.0335 10.25 12 10.25C12.9665 10.25 13.75 11.0335 13.75 12C13.75 12.9665 12.9665 13.75 12 13.75C11.0335 13.75 10.25 12.9665 10.25 12ZM19 11.75C18.8619 11.75 18.75 11.8619 18.75 12C18.75 12.1381 18.8619 12.25 19 12.25C19.1381 12.25 19.25 12.1381 19.25 12C19.25 11.8619 19.1381 11.75 19 11.75ZM17.25 12C17.25 11.0335 18.0335 10.25 19 10.25C19.9665 10.25 20.75 11.0335 20.75 12C20.75 12.9665 19.9665 13.75 19 13.75C18.0335 13.75 17.25 12.9665 17.25 12ZM5 18.75C4.86193 18.75 4.75 18.8619 4.75 19C4.75 19.1381 4.86193 19.25 5 19.25C5.13807 19.25 5.25 19.1381 5.25 19C5.25 18.8619 5.13807 18.75 5 18.75ZM3.25 19C3.25 18.0335 4.0335 17.25 5 17.25C5.9665 17.25 6.75 18.0335 6.75 19C6.75 19.9665 5.9665 20.75 5 20.75C4.0335 20.75 3.25 19.9665 3.25 19ZM12 18.75C11.8619 18.75 11.75 18.8619 11.75 19C11.75 19.1381 11.8619 19.25 12 19.25C12.1381 19.25 12.25 19.1381 12.25 19C12.25 18.8619 12.1381 18.75 12 18.75ZM10.25 19C10.25 18.0335 11.0335 17.25 12 17.25C12.9665 17.25 13.75 18.0335 13.75 19C13.75 19.9665 12.9665 20.75 12 20.75C11.0335 20.75 10.25 19.9665 10.25 19ZM19 18.75C18.8619 18.75 18.75 18.8619 18.75 19C18.75 19.1381 18.8619 19.25 19 19.25C19.1381 19.25 19.25 19.1381 19.25 19C19.25 18.8619 19.1381 18.75 19 18.75ZM17.25 19C17.25 18.0335 18.0335 17.25 19 17.25C19.9665 17.25 20.75 18.0335 20.75 19C20.75 19.9665 19.9665 20.75 19 20.75C18.0335 20.75 17.25 19.9665 17.25 19Z" fill="currentColor"/>
</svg>
