<svg width="24" height="24" viewBox="0 0 24 24" fill="none" xmlns="http://www.w3.org/2000/svg">
<path d="M11.1696 1.25H12.8304C13.3646 1.24999 13.8104 1.24998 14.1747 1.27974C14.5546 1.31078 14.9112 1.37789 15.2485 1.54973C15.7659 1.81338 16.1866 2.23408 16.4503 2.75153C16.6221 3.08879 16.6892 3.44545 16.7203 3.82533C16.75 4.18956 16.75 4.6354 16.75 5.16955V5.25H21C21.4142 5.25 21.75 5.58579 21.75 6C21.75 6.41421 21.4142 6.75 21 6.75H19.75V17.2321C19.75 18.045 19.75 18.7006 19.7066 19.2315C19.662 19.7781 19.5676 20.2582 19.3413 20.7025C18.9818 21.4081 18.4081 21.9818 17.7025 22.3413C17.2582 22.5676 16.7781 22.662 16.2315 22.7066C15.7006 22.75 15.045 22.75 14.2321 22.75H9.76788C8.95505 22.75 8.29944 22.75 7.76853 22.7066C7.2219 22.662 6.74175 22.5676 6.29754 22.3413C5.59193 21.9818 5.01825 21.4081 4.65873 20.7025C4.43238 20.2582 4.33803 19.7781 4.29336 19.2315C4.24999 18.7006 4.24999 18.0449 4.25 17.2321V6.75H3C2.58579 6.75 2.25 6.41421 2.25 6C2.25 5.58579 2.58579 5.25 3 5.25H7.25V5.16957C7.24999 4.63542 7.24998 4.18957 7.27974 3.82533C7.31078 3.44545 7.37789 3.08879 7.54973 2.75153C7.81338 2.23408 8.23408 1.81338 8.75153 1.54973C9.08879 1.37789 9.44545 1.31078 9.82533 1.27974C10.1896 1.24998 10.6354 1.24999 11.1696 1.25ZM5.75 6.75V17.2C5.75 18.0525 5.75058 18.6467 5.78838 19.1093C5.82546 19.5632 5.8946 19.824 5.99524 20.0215C6.21095 20.4448 6.55516 20.789 6.97852 21.0048C7.17604 21.1054 7.4368 21.1745 7.89068 21.2116C8.35331 21.2494 8.94755 21.25 9.8 21.25H14.2C15.0525 21.25 15.6467 21.2494 16.1093 21.2116C16.5632 21.1745 16.824 21.1054 17.0215 21.0048C17.4448 20.789 17.7891 20.4448 18.0048 20.0215C18.1054 19.824 18.1745 19.5632 18.2116 19.1093C18.2494 18.6467 18.25 18.0525 18.25 17.2V6.75H5.75ZM15.25 5.25V5.2C15.25 4.62757 15.2494 4.24336 15.2252 3.94748C15.2018 3.66036 15.1599 3.52307 15.1138 3.43251C14.9939 3.19731 14.8027 3.00608 14.5675 2.88624C14.4769 2.8401 14.3396 2.79822 14.0525 2.77476C13.7566 2.75058 13.3724 2.75 12.8 2.75H11.2C10.6276 2.75 10.2434 2.75058 9.94748 2.77476C9.66035 2.79822 9.52307 2.8401 9.43251 2.88624C9.19731 3.00608 9.00608 3.19731 8.88624 3.43251C8.8401 3.52307 8.79822 3.66036 8.77476 3.94748C8.75058 4.24336 8.75 4.62757 8.75 5.2V5.25H15.25ZM10 10.75C9.58579 10.75 9.25 11.0858 9.25 11.5V16.5C9.25 16.9142 9.58579 17.25 10 17.25C10.4142 17.25 10.75 16.9142 10.75 16.5V11.5C10.75 11.0858 10.4142 10.75 10 10.75ZM14 10.75C13.5858 10.75 13.25 11.0858 13.25 11.5V16.5C13.25 16.9142 13.5858 17.25 14 17.25C14.4142 17.25 14.75 16.9142 14.75 16.5V11.5C14.75 11.0858 14.4142 10.75 14 10.75Z" fill="currentColor"/>
</svg>
